<svg xmlns="http://www.w3.org/2000/svg" xmlns:xlink="http://www.w3.org/1999/xlink" width="500" zoomAndPan="magnify" viewBox="0 0 375 374.999991" height="500" preserveAspectRatio="xMidYMid meet" version="1.0"><defs><g/><clipPath id="307b7cbe17"><path d="M 121.679688 113.324219 L 253.554688 113.324219 L 253.554688 196.492188 L 121.679688 196.492188 Z M 121.679688 113.324219 " clip-rule="nonzero"/></clipPath></defs><g clip-path="url(#307b7cbe17)"><path fill="#f85555" d="M 163.292969 118.855469 C 171.101562 118.855469 178.289062 121.410156 184.195312 125.636719 C 176.542969 133.066406 171.746094 143.425781 171.746094 154.90625 C 171.746094 166.382812 176.542969 176.734375 184.203125 184.171875 C 178.289062 188.398438 171.101562 190.945312 163.292969 190.945312 C 143.398438 190.945312 127.21875 174.78125 127.21875 154.90625 C 127.21875 135.027344 143.398438 118.855469 163.292969 118.855469 Z M 163.292969 196.492188 C 172.828125 196.492188 181.507812 193.144531 188.53125 187.742188 C 195.320312 192.730469 203.609375 195.773438 212.65625 195.773438 C 235.207031 195.773438 253.558594 177.4375 253.558594 154.90625 C 253.558594 132.371094 235.207031 114.027344 212.65625 114.027344 C 203.609375 114.027344 195.320312 117.078125 188.53125 122.0625 C 181.507812 116.660156 172.828125 113.320312 163.292969 113.320312 C 140.347656 113.320312 121.679688 131.972656 121.679688 154.90625 C 121.679688 177.835938 140.347656 196.492188 163.292969 196.492188 " fill-opacity="1" fill-rule="nonzero"/></g><g fill="#f85555" fill-opacity="1"><g transform="translate(99.373585, 236.139052)"><g><path d="M 7.5 0.1875 C 6.46875 0.1875 5.953125 -0.335938 5.953125 -1.390625 L 5.953125 -14.40625 L 1.25 -14.40625 C 0.363281 -14.40625 -0.078125 -14.835938 -0.078125 -15.703125 C -0.078125 -16.554688 0.363281 -16.984375 1.25 -16.984375 L 13.734375 -16.984375 C 14.617188 -16.984375 15.0625 -16.554688 15.0625 -15.703125 C 15.0625 -14.835938 14.617188 -14.40625 13.734375 -14.40625 L 9.03125 -14.40625 L 9.03125 -1.390625 C 9.03125 -0.335938 8.519531 0.1875 7.5 0.1875 Z M 7.5 0.1875 "/></g></g></g><g fill="#f85555" fill-opacity="1"><g transform="translate(118.457713, 236.139052)"><g><path d="M 3.5 0 C 2.40625 0 1.859375 -0.546875 1.859375 -1.640625 L 1.859375 -15.34375 C 1.859375 -16.4375 2.40625 -16.984375 3.5 -16.984375 L 12.09375 -16.984375 C 12.925781 -16.984375 13.34375 -16.582031 13.34375 -15.78125 C 13.34375 -14.945312 12.925781 -14.53125 12.09375 -14.53125 L 4.8125 -14.53125 L 4.8125 -9.859375 L 11.5625 -9.859375 C 12.394531 -9.859375 12.8125 -9.445312 12.8125 -8.625 C 12.8125 -7.800781 12.394531 -7.390625 11.5625 -7.390625 L 4.8125 -7.390625 L 4.8125 -2.453125 L 12.09375 -2.453125 C 12.925781 -2.453125 13.34375 -2.046875 13.34375 -1.234375 C 13.34375 -0.410156 12.925781 0 12.09375 0 Z M 3.5 0 "/></g></g></g><g fill="#f85555" fill-opacity="1"><g transform="translate(136.963593, 236.139052)"><g><path d="M 9.765625 0.234375 C 7.992188 0.234375 6.476562 -0.117188 5.21875 -0.828125 C 3.957031 -1.546875 2.988281 -2.554688 2.3125 -3.859375 C 1.632812 -5.171875 1.296875 -6.71875 1.296875 -8.5 C 1.296875 -10.28125 1.632812 -11.820312 2.3125 -13.125 C 2.988281 -14.425781 3.957031 -15.4375 5.21875 -16.15625 C 6.476562 -16.875 7.992188 -17.234375 9.765625 -17.234375 C 10.640625 -17.234375 11.503906 -17.117188 12.359375 -16.890625 C 13.210938 -16.660156 13.957031 -16.335938 14.59375 -15.921875 C 15.019531 -15.648438 15.269531 -15.328125 15.34375 -14.953125 C 15.425781 -14.578125 15.378906 -14.226562 15.203125 -13.90625 C 15.023438 -13.59375 14.757812 -13.382812 14.40625 -13.28125 C 14.050781 -13.175781 13.660156 -13.269531 13.234375 -13.5625 C 12.734375 -13.882812 12.191406 -14.117188 11.609375 -14.265625 C 11.035156 -14.410156 10.453125 -14.484375 9.859375 -14.484375 C 8.140625 -14.484375 6.828125 -13.960938 5.921875 -12.921875 C 5.023438 -11.890625 4.578125 -10.414062 4.578125 -8.5 C 4.578125 -6.59375 5.023438 -5.113281 5.921875 -4.0625 C 6.828125 -3.019531 8.140625 -2.5 9.859375 -2.5 C 10.460938 -2.5 11.0625 -2.578125 11.65625 -2.734375 C 12.25 -2.890625 12.8125 -3.128906 13.34375 -3.453125 C 13.78125 -3.722656 14.164062 -3.804688 14.5 -3.703125 C 14.84375 -3.609375 15.097656 -3.410156 15.265625 -3.109375 C 15.429688 -2.816406 15.484375 -2.492188 15.421875 -2.140625 C 15.359375 -1.785156 15.140625 -1.472656 14.765625 -1.203125 C 14.128906 -0.734375 13.363281 -0.375 12.46875 -0.125 C 11.570312 0.113281 10.671875 0.234375 9.765625 0.234375 Z M 9.765625 0.234375 "/></g></g></g><g fill="#f85555" fill-opacity="1"><g transform="translate(157.469262, 236.139052)"><g><path d="M 3.390625 0.1875 C 2.367188 0.1875 1.859375 -0.335938 1.859375 -1.390625 L 1.859375 -15.59375 C 1.859375 -16.644531 2.367188 -17.171875 3.390625 -17.171875 C 4.421875 -17.171875 4.9375 -16.644531 4.9375 -15.59375 L 4.9375 -9.90625 L 13.6875 -9.90625 L 13.6875 -15.59375 C 13.6875 -16.644531 14.203125 -17.171875 15.234375 -17.171875 C 16.253906 -17.171875 16.765625 -16.644531 16.765625 -15.59375 L 16.765625 -1.390625 C 16.765625 -0.335938 16.253906 0.1875 15.234375 0.1875 C 14.203125 0.1875 13.6875 -0.335938 13.6875 -1.390625 L 13.6875 -7.328125 L 4.9375 -7.328125 L 4.9375 -1.390625 C 4.9375 -0.335938 4.421875 0.1875 3.390625 0.1875 Z M 3.390625 0.1875 "/></g></g></g><g fill="#f85555" fill-opacity="1"><g transform="translate(180.215646, 236.139052)"><g><path d="M 2.671875 -5.25 C 2.316406 -5.25 2.023438 -5.363281 1.796875 -5.59375 C 1.566406 -5.832031 1.453125 -6.117188 1.453125 -6.453125 C 1.453125 -6.804688 1.566406 -7.09375 1.796875 -7.3125 C 2.023438 -7.539062 2.316406 -7.65625 2.671875 -7.65625 L 7.8125 -7.65625 C 8.144531 -7.65625 8.425781 -7.539062 8.65625 -7.3125 C 8.894531 -7.09375 9.015625 -6.804688 9.015625 -6.453125 C 9.015625 -6.117188 8.894531 -5.832031 8.65625 -5.59375 C 8.425781 -5.363281 8.144531 -5.25 7.8125 -5.25 Z M 2.671875 -5.25 "/></g></g></g><g fill="#f85555" fill-opacity="1"><g transform="translate(194.794245, 236.139052)"><g><path d="M 7.703125 0.234375 C 6.628906 0.234375 5.582031 0.113281 4.5625 -0.125 C 3.539062 -0.363281 2.65625 -0.722656 1.90625 -1.203125 C 1.53125 -1.441406 1.300781 -1.738281 1.21875 -2.09375 C 1.144531 -2.445312 1.175781 -2.78125 1.3125 -3.09375 C 1.445312 -3.40625 1.660156 -3.617188 1.953125 -3.734375 C 2.253906 -3.859375 2.597656 -3.800781 2.984375 -3.5625 C 3.691406 -3.144531 4.4375 -2.835938 5.21875 -2.640625 C 6.007812 -2.453125 6.835938 -2.359375 7.703125 -2.359375 C 8.972656 -2.359375 9.894531 -2.570312 10.46875 -3 C 11.050781 -3.425781 11.34375 -3.976562 11.34375 -4.65625 C 11.34375 -5.21875 11.140625 -5.65625 10.734375 -5.96875 C 10.328125 -6.289062 9.625 -6.554688 8.625 -6.765625 L 5.96875 -7.328125 C 2.957031 -7.960938 1.453125 -9.507812 1.453125 -11.96875 C 1.453125 -13.03125 1.726562 -13.953125 2.28125 -14.734375 C 2.84375 -15.523438 3.625 -16.140625 4.625 -16.578125 C 5.625 -17.015625 6.773438 -17.234375 8.078125 -17.234375 C 9.035156 -17.234375 9.945312 -17.109375 10.8125 -16.859375 C 11.6875 -16.617188 12.46875 -16.269531 13.15625 -15.8125 C 13.476562 -15.582031 13.671875 -15.300781 13.734375 -14.96875 C 13.796875 -14.644531 13.753906 -14.34375 13.609375 -14.0625 C 13.460938 -13.78125 13.234375 -13.585938 12.921875 -13.484375 C 12.609375 -13.378906 12.242188 -13.445312 11.828125 -13.6875 C 11.234375 -14.019531 10.628906 -14.257812 10.015625 -14.40625 C 9.410156 -14.550781 8.753906 -14.625 8.046875 -14.625 C 6.941406 -14.625 6.070312 -14.390625 5.4375 -13.921875 C 4.8125 -13.460938 4.5 -12.851562 4.5 -12.09375 C 4.5 -11.519531 4.691406 -11.054688 5.078125 -10.703125 C 5.460938 -10.359375 6.125 -10.09375 7.0625 -9.90625 L 9.6875 -9.34375 C 11.28125 -9.007812 12.460938 -8.476562 13.234375 -7.75 C 14.015625 -7.03125 14.40625 -6.066406 14.40625 -4.859375 C 14.40625 -3.847656 14.128906 -2.957031 13.578125 -2.1875 C 13.035156 -1.414062 12.265625 -0.816406 11.265625 -0.390625 C 10.265625 0.0234375 9.078125 0.234375 7.703125 0.234375 Z M 7.703125 0.234375 "/></g></g></g><g fill="#f85555" fill-opacity="1"><g transform="translate(214.11932, 236.139052)"><g><path d="M 3.390625 0.1875 C 2.367188 0.1875 1.859375 -0.335938 1.859375 -1.390625 L 1.859375 -15.59375 C 1.859375 -16.644531 2.367188 -17.171875 3.390625 -17.171875 C 4.421875 -17.171875 4.9375 -16.644531 4.9375 -15.59375 L 4.9375 -9.90625 L 13.6875 -9.90625 L 13.6875 -15.59375 C 13.6875 -16.644531 14.203125 -17.171875 15.234375 -17.171875 C 16.253906 -17.171875 16.765625 -16.644531 16.765625 -15.59375 L 16.765625 -1.390625 C 16.765625 -0.335938 16.253906 0.1875 15.234375 0.1875 C 14.203125 0.1875 13.6875 -0.335938 13.6875 -1.390625 L 13.6875 -7.328125 L 4.9375 -7.328125 L 4.9375 -1.390625 C 4.9375 -0.335938 4.421875 0.1875 3.390625 0.1875 Z M 3.390625 0.1875 "/></g></g></g><g fill="#f85555" fill-opacity="1"><g transform="translate(236.86571, 236.139052)"><g><path d="M 9.46875 0.234375 C 7.832031 0.234375 6.398438 -0.125 5.171875 -0.84375 C 3.941406 -1.5625 2.988281 -2.578125 2.3125 -3.890625 C 1.632812 -5.203125 1.296875 -6.738281 1.296875 -8.5 C 1.296875 -10.28125 1.632812 -11.820312 2.3125 -13.125 C 2.988281 -14.425781 3.9375 -15.4375 5.15625 -16.15625 C 6.375 -16.875 7.8125 -17.234375 9.46875 -17.234375 C 11.125 -17.234375 12.5625 -16.875 13.78125 -16.15625 C 15 -15.4375 15.945312 -14.425781 16.625 -13.125 C 17.300781 -11.820312 17.640625 -10.289062 17.640625 -8.53125 C 17.640625 -6.75 17.300781 -5.203125 16.625 -3.890625 C 15.945312 -2.578125 15 -1.5625 13.78125 -0.84375 C 12.5625 -0.125 11.125 0.234375 9.46875 0.234375 Z M 9.46875 -2.40625 C 11.03125 -2.40625 12.242188 -2.941406 13.109375 -4.015625 C 13.972656 -5.097656 14.40625 -6.59375 14.40625 -8.5 C 14.40625 -10.425781 13.972656 -11.921875 13.109375 -12.984375 C 12.253906 -14.046875 11.039062 -14.578125 9.46875 -14.578125 C 7.90625 -14.578125 6.691406 -14.046875 5.828125 -12.984375 C 4.960938 -11.921875 4.53125 -10.425781 4.53125 -8.5 C 4.53125 -6.59375 4.960938 -5.097656 5.828125 -4.015625 C 6.691406 -2.941406 7.90625 -2.40625 9.46875 -2.40625 Z M 9.46875 -2.40625 "/></g></g></g><g fill="#f85555" fill-opacity="1"><g transform="translate(259.901223, 236.139052)"><g><path d="M 3.390625 0.1875 C 2.367188 0.1875 1.859375 -0.335938 1.859375 -1.390625 L 1.859375 -15.421875 C 1.859375 -16.460938 2.378906 -16.984375 3.421875 -16.984375 L 9.234375 -16.984375 C 11.085938 -16.984375 12.519531 -16.515625 13.53125 -15.578125 C 14.550781 -14.648438 15.0625 -13.351562 15.0625 -11.6875 C 15.0625 -10.019531 14.550781 -8.710938 13.53125 -7.765625 C 12.519531 -6.828125 11.085938 -6.359375 9.234375 -6.359375 L 4.9375 -6.359375 L 4.9375 -1.390625 C 4.9375 -0.335938 4.421875 0.1875 3.390625 0.1875 Z M 4.9375 -8.796875 L 8.75 -8.796875 C 10.96875 -8.796875 12.078125 -9.757812 12.078125 -11.6875 C 12.078125 -13.59375 10.96875 -14.546875 8.75 -14.546875 L 4.9375 -14.546875 Z M 4.9375 -8.796875 "/></g></g></g><g fill="#f85555" fill-opacity="1"><g transform="translate(136.883982, 257.056068)"><g><path d="M 0.796875 0 L 0.796875 -8.234375 L 7.28125 -8.234375 L 7.28125 -6.90625 L 2.53125 -6.90625 L 2.53125 -4.828125 L 6.921875 -4.828125 L 6.921875 -3.5 L 2.53125 -3.5 L 2.53125 -1.328125 L 7.515625 -1.328125 L 7.515625 0 Z M 0.796875 0 "/></g></g></g><g fill="#f85555" fill-opacity="1"><g transform="translate(147.63227, 257.056068)"><g><path d="M 4.640625 -1.234375 C 5.679688 -1.234375 6.40625 -1.757812 6.8125 -2.8125 L 8.3125 -2.234375 C 7.988281 -1.441406 7.515625 -0.851562 6.890625 -0.46875 C 6.265625 -0.0820312 5.515625 0.109375 4.640625 0.109375 C 3.316406 0.109375 2.289062 -0.265625 1.5625 -1.015625 C 0.84375 -1.765625 0.484375 -2.8125 0.484375 -4.15625 C 0.484375 -5.507812 0.832031 -6.546875 1.53125 -7.265625 C 2.226562 -7.992188 3.238281 -8.359375 4.5625 -8.359375 C 5.53125 -8.359375 6.316406 -8.160156 6.921875 -7.765625 C 7.535156 -7.378906 7.96875 -6.8125 8.21875 -6.0625 L 6.6875 -5.65625 C 6.5625 -6.0625 6.3125 -6.382812 5.9375 -6.625 C 5.5625 -6.875 5.117188 -7 4.609375 -7 C 3.828125 -7 3.234375 -6.753906 2.828125 -6.265625 C 2.429688 -5.785156 2.234375 -5.082031 2.234375 -4.15625 C 2.234375 -3.207031 2.4375 -2.484375 2.84375 -1.984375 C 3.257812 -1.484375 3.859375 -1.234375 4.640625 -1.234375 Z M 4.640625 -1.234375 "/></g></g></g><g fill="#f85555" fill-opacity="1"><g transform="translate(159.040082, 257.056068)"><g><path d="M 8.8125 -4.15625 C 8.8125 -3.300781 8.640625 -2.546875 8.296875 -1.890625 C 7.960938 -1.242188 7.476562 -0.75 6.84375 -0.40625 C 6.207031 -0.0625 5.472656 0.109375 4.640625 0.109375 C 3.335938 0.109375 2.316406 -0.269531 1.578125 -1.03125 C 0.847656 -1.789062 0.484375 -2.832031 0.484375 -4.15625 C 0.484375 -5.476562 0.847656 -6.507812 1.578125 -7.25 C 2.316406 -7.988281 3.335938 -8.359375 4.640625 -8.359375 C 5.953125 -8.359375 6.972656 -7.984375 7.703125 -7.234375 C 8.441406 -6.484375 8.8125 -5.457031 8.8125 -4.15625 Z M 7.046875 -4.15625 C 7.046875 -5.039062 6.832031 -5.734375 6.40625 -6.234375 C 5.988281 -6.742188 5.398438 -7 4.640625 -7 C 3.867188 -7 3.273438 -6.75 2.859375 -6.25 C 2.441406 -5.75 2.234375 -5.050781 2.234375 -4.15625 C 2.234375 -3.25 2.445312 -2.535156 2.875 -2.015625 C 3.300781 -1.492188 3.890625 -1.234375 4.640625 -1.234375 C 5.410156 -1.234375 6.003906 -1.488281 6.421875 -2 C 6.835938 -2.507812 7.046875 -3.226562 7.046875 -4.15625 Z M 7.046875 -4.15625 "/></g></g></g><g fill="#f85555" fill-opacity="1"><g transform="translate(171.113253, 257.056068)"><g><path d="M 7.640625 0 L 7.640625 -4.984375 C 7.640625 -5.097656 7.640625 -5.210938 7.640625 -5.328125 C 7.640625 -5.441406 7.660156 -5.925781 7.703125 -6.78125 C 7.421875 -5.738281 7.210938 -5.007812 7.078125 -4.59375 L 5.59375 0 L 4.375 0 L 2.890625 -4.59375 L 2.265625 -6.78125 C 2.304688 -5.875 2.328125 -5.273438 2.328125 -4.984375 L 2.328125 0 L 0.796875 0 L 0.796875 -8.234375 L 3.109375 -8.234375 L 4.578125 -3.625 L 4.703125 -3.1875 L 4.984375 -2.078125 L 5.359375 -3.40625 L 6.875 -8.234375 L 9.171875 -8.234375 L 9.171875 0 Z M 7.640625 0 "/></g></g></g><g fill="#f85555" fill-opacity="1"><g transform="translate(183.845946, 257.056068)"><g><path d="M 7.640625 0 L 7.640625 -4.984375 C 7.640625 -5.097656 7.640625 -5.210938 7.640625 -5.328125 C 7.640625 -5.441406 7.660156 -5.925781 7.703125 -6.78125 C 7.421875 -5.738281 7.210938 -5.007812 7.078125 -4.59375 L 5.59375 0 L 4.375 0 L 2.890625 -4.59375 L 2.265625 -6.78125 C 2.304688 -5.875 2.328125 -5.273438 2.328125 -4.984375 L 2.328125 0 L 0.796875 0 L 0.796875 -8.234375 L 3.109375 -8.234375 L 4.578125 -3.625 L 4.703125 -3.1875 L 4.984375 -2.078125 L 5.359375 -3.40625 L 6.875 -8.234375 L 9.171875 -8.234375 L 9.171875 0 Z M 7.640625 0 "/></g></g></g><g fill="#f85555" fill-opacity="1"><g transform="translate(196.578639, 257.056068)"><g><path d="M 0.796875 0 L 0.796875 -8.234375 L 7.28125 -8.234375 L 7.28125 -6.90625 L 2.53125 -6.90625 L 2.53125 -4.828125 L 6.921875 -4.828125 L 6.921875 -3.5 L 2.53125 -3.5 L 2.53125 -1.328125 L 7.515625 -1.328125 L 7.515625 0 Z M 0.796875 0 "/></g></g></g><g fill="#f85555" fill-opacity="1"><g transform="translate(207.326929, 257.056068)"><g><path d="M 6.453125 0 L 4.546875 -3.125 L 2.53125 -3.125 L 2.53125 0 L 0.796875 0 L 0.796875 -8.234375 L 4.921875 -8.234375 C 5.898438 -8.234375 6.65625 -8.019531 7.1875 -7.59375 C 7.71875 -7.175781 7.984375 -6.570312 7.984375 -5.78125 C 7.984375 -5.207031 7.816406 -4.707031 7.484375 -4.28125 C 7.160156 -3.863281 6.722656 -3.585938 6.171875 -3.453125 L 8.390625 0 Z M 6.25 -5.703125 C 6.25 -6.492188 5.742188 -6.890625 4.734375 -6.890625 L 2.53125 -6.890625 L 2.53125 -4.46875 L 4.78125 -4.46875 C 5.257812 -4.46875 5.625 -4.578125 5.875 -4.796875 C 6.125 -5.015625 6.25 -5.316406 6.25 -5.703125 Z M 6.25 -5.703125 "/></g></g></g><g fill="#f85555" fill-opacity="1"><g transform="translate(218.734742, 257.056068)"><g><path d="M 4.640625 -1.234375 C 5.679688 -1.234375 6.40625 -1.757812 6.8125 -2.8125 L 8.3125 -2.234375 C 7.988281 -1.441406 7.515625 -0.851562 6.890625 -0.46875 C 6.265625 -0.0820312 5.515625 0.109375 4.640625 0.109375 C 3.316406 0.109375 2.289062 -0.265625 1.5625 -1.015625 C 0.84375 -1.765625 0.484375 -2.8125 0.484375 -4.15625 C 0.484375 -5.507812 0.832031 -6.546875 1.53125 -7.265625 C 2.226562 -7.992188 3.238281 -8.359375 4.5625 -8.359375 C 5.53125 -8.359375 6.316406 -8.160156 6.921875 -7.765625 C 7.535156 -7.378906 7.96875 -6.8125 8.21875 -6.0625 L 6.6875 -5.65625 C 6.5625 -6.0625 6.3125 -6.382812 5.9375 -6.625 C 5.5625 -6.875 5.117188 -7 4.609375 -7 C 3.828125 -7 3.234375 -6.753906 2.828125 -6.265625 C 2.429688 -5.785156 2.234375 -5.082031 2.234375 -4.15625 C 2.234375 -3.207031 2.4375 -2.484375 2.84375 -1.984375 C 3.257812 -1.484375 3.859375 -1.234375 4.640625 -1.234375 Z M 4.640625 -1.234375 "/></g></g></g><g fill="#f85555" fill-opacity="1"><g transform="translate(230.142556, 257.056068)"><g><path d="M 0.796875 0 L 0.796875 -8.234375 L 7.28125 -8.234375 L 7.28125 -6.90625 L 2.53125 -6.90625 L 2.53125 -4.828125 L 6.921875 -4.828125 L 6.921875 -3.5 L 2.53125 -3.5 L 2.53125 -1.328125 L 7.515625 -1.328125 L 7.515625 0 Z M 0.796875 0 "/></g></g></g></svg>